<svg width="25" height="26" viewBox="0 0 25 26" fill="none" xmlns="http://www.w3.org/2000/svg">
<g clip-path="url(#clip0_51_10)">
<path d="M12.5 24.9905C5.88926 24.9905 0.509521 19.6108 0.509521 13C0.509521 6.38926 5.88926 1.00952 12.5 1.00952C19.1108 1.00952 24.4905 6.38926 24.4905 13C24.4905 19.6108 19.1108 24.9905 12.5 24.9905ZM12.5 1.80889C6.32892 1.80889 1.30889 6.82892 1.30889 13C1.30889 19.1711 6.32892 24.1912 12.5 24.1912C18.6711 24.1912 23.6912 19.1711 23.6912 13C23.6912 6.82892 18.6711 1.80889 12.5 1.80889Z" fill="#343434" stroke="#343434" stroke-width="0.5"/>
<path d="M12.5001 16.1974C9.63435 16.1974 7.3042 13.8673 7.3042 11.0016C7.3042 8.13582 9.63435 5.80566 12.5001 5.80566C15.3658 5.80566 17.696 8.13582 17.696 11.0016C17.696 13.8673 15.3658 16.1974 12.5001 16.1974ZM12.5001 6.60503C10.074 6.60503 8.10357 8.57547 8.10357 11.0016C8.10357 13.4276 10.074 15.3981 12.5001 15.3981C14.9262 15.3981 16.8966 13.4276 16.8966 11.0016C16.8966 8.57547 14.9262 6.60503 12.5001 6.60503Z" fill="#343434" stroke="#343434" stroke-width="0.5"/>
<path d="M20.1499 22.1929C19.982 22.1929 19.8221 22.085 19.7702 21.9131C18.767 18.7836 15.7813 16.5973 12.5039 16.5973C9.2265 16.5973 6.23687 18.7836 5.23766 21.9131C5.16971 22.1249 4.94589 22.2408 4.73406 22.1729C4.52222 22.105 4.40632 21.8811 4.47426 21.6693C5.58139 18.212 8.88277 15.7939 12.5039 15.7939C16.125 15.7939 19.4264 18.208 20.5336 21.6693C20.6015 21.8811 20.4856 22.105 20.2738 22.1729C20.2338 22.1849 20.1938 22.1929 20.1539 22.1929H20.1499Z" fill="#343434" stroke="#343434" stroke-width="0.5"/>
</g>
<defs>
<clipPath id="clip0_51_10">
<rect width="25" height="25" fill="white" transform="translate(0 0.5)"/>
</clipPath>
</defs>
</svg>
