<svg width="25" height="26" viewBox="0 0 25 26" fill="none" xmlns="http://www.w3.org/2000/svg">
<g clip-path="url(#clip0_51_3)">
<path d="M9.30268 18.5953C4.45479 18.5953 0.510132 14.6507 0.510132 9.8028C0.510132 4.95491 4.45479 1.01025 9.30268 1.01025C14.1506 1.01025 18.0952 4.95491 18.0952 9.8028C18.0952 14.6507 14.1506 18.5953 9.30268 18.5953ZM9.30268 1.80958C4.89441 1.80958 1.30945 5.39454 1.30945 9.8028C1.30945 14.2111 4.89441 17.796 9.30268 17.796C13.7109 17.796 17.2959 14.2111 17.2959 9.8028C17.2959 5.39454 13.7109 1.80958 9.30268 1.80958Z" fill="#343434" stroke="#343434" stroke-width="0.5"/>
<path d="M24.0901 24.9899C23.9862 24.9899 23.8862 24.9499 23.8063 24.874L14.9538 16.0215C14.7979 15.8656 14.7979 15.6138 14.9538 15.458C15.1097 15.3021 15.3615 15.3021 15.5173 15.458L24.3698 24.3105C24.5257 24.4663 24.5257 24.7181 24.3698 24.874C24.2899 24.9539 24.19 24.9899 24.0861 24.9899H24.0901Z" fill="#343434" stroke="#343434" stroke-width="0.5"/>
</g>
<defs>
<clipPath id="clip0_51_3">
<rect width="25" height="25" fill="white" transform="translate(0 0.5)"/>
</clipPath>
</defs>
</svg>
